<?xml version="1.0" encoding="UTF-8"?>
<!DOCTYPE svg PUBLIC "-//W3C//DTD SVG 1.1//EN" "http://www.w3.org/Graphics/SVG/1.1/DTD/svg11.dtd">
<!-- Creator: CorelDRAW 2019 (64-Bit) -->
<svg xmlns="http://www.w3.org/2000/svg" xml:space="preserve" width="135.467mm" height="122.496mm" version="1.1" style="shape-rendering:geometricPrecision; text-rendering:geometricPrecision; image-rendering:optimizeQuality; fill-rule:evenodd; clip-rule:evenodd"
viewBox="0 0 3438.49 3109.28"
 xmlns:xlink="http://www.w3.org/1999/xlink"
 xmlns:xodm="http://www.corel.com/coreldraw/odm/2003"
 enable-background="new 0 0 470 470">
 <defs>
  <style type="text/css">
   <![CDATA[
    .fil0 {fill:#2A7CB6;fill-rule:nonzero}
   ]]>
  </style>
 </defs>
 <g id="Layer_x0020_1">
  <metadata id="CorelCorpID_0Corel-Layer"/>
  <g id="_2952888308720">
   <g>
    <path class="fil0" d="M1224.05 1365.32c-15.51,-26.04 -49.18,-34.58 -75.22,-19.06l-639.19 380.71c-16.62,9.89 -26.8,27.8 -26.8,47.14 0,19.33 10.18,37.25 26.79,47.14l639.19 380.71c8.8,5.25 18.47,7.74 28.03,7.74 18.7,0 36.93,-9.57 47.19,-26.8 15.51,-26.04 6.97,-59.71 -19.06,-75.22l-560.04 -333.58 560.04 -333.58c26.04,-15.5 34.58,-49.18 19.06,-75.22l0 0.01z"/>
    <path class="fil0" d="M2214.45 2182.91c10.26,17.24 28.49,26.8 47.19,26.8 9.55,0 19.23,-2.5 28.03,-7.74l639.19 -380.71c16.62,-9.9 26.79,-27.8 26.79,-47.14 0,-19.33 -10.18,-37.25 -26.79,-47.14l-639.19 -380.71c-26.03,-15.51 -59.72,-6.98 -75.22,19.06 -15.51,26.04 -6.97,59.71 19.06,75.22l560.04 333.58 -560.04 333.58c-26.04,15.5 -34.58,49.18 -19.06,75.22l0 -0.01z"/>
    <path class="fil0" d="M1929.36 1362.81l-511.33 761.43c-16.89,25.15 -10.2,59.25 14.96,76.15 9.39,6.31 20.02,9.32 30.54,9.32 17.67,0 35.02,-8.52 45.6,-24.29l511.33 -761.43c16.89,-25.15 10.2,-59.25 -14.96,-76.15 -25.17,-16.89 -59.26,-10.18 -76.15,14.97l0 0z"/>
    <path class="fil0" d="M3383.62 0l-3328.75 0c-30.31,0 -54.87,24.57 -54.87,54.87l0 2999.54c0,30.3 24.56,54.87 54.87,54.87l3328.75 0c30.31,0 54.87,-24.57 54.87,-54.87l0 -585.28c0,-30.3 -24.56,-54.87 -54.87,-54.87 -30.31,0 -54.87,24.57 -54.87,54.87l0 530.41 -3219.02 0 0 -2450.84 3219.02 0 0 1700.96c0,30.3 24.56,54.87 54.87,54.87 30.31,0 54.87,-24.57 54.87,-54.87l0 -2194.78c0,-30.3 -24.56,-54.87 -54.87,-54.87zm-3273.89 109.74l2030.17 0 0 329.22 -2030.17 0 0 -329.22zm2139.92 329.22l0 -329.22 1079.1 0 0 329.22 -1079.1 0z"/>
    <path class="fil0" d="M2791.03 215.82c-32.27,0 -58.53,26.26 -58.53,58.53 0,32.27 26.26,58.53 58.53,58.53 32.27,0 58.53,-26.26 58.53,-58.53 0,-32.27 -26.26,-58.53 -58.53,-58.53z"/>
    <path class="fil0" d="M2491.08 215.82c-32.27,0 -58.53,26.26 -58.53,58.53 0,32.27 26.26,58.53 58.53,58.53 32.27,0 58.53,-26.26 58.53,-58.53 0,-32.27 -26.26,-58.53 -58.53,-58.53z"/>
    <path class="fil0" d="M3090.99 215.82c-32.27,0 -58.53,26.26 -58.53,58.53 0,32.27 26.26,58.53 58.53,58.53 32.27,0 58.53,-26.26 58.53,-58.53 0,-32.27 -26.26,-58.53 -58.53,-58.53z"/>
   </g>
  </g>
 </g>
</svg>
