<?xml version="1.0" encoding="UTF-8"?>
<!DOCTYPE svg PUBLIC "-//W3C//DTD SVG 1.1//EN" "http://www.w3.org/Graphics/SVG/1.1/DTD/svg11.dtd">
<!-- Creator: CorelDRAW 2019 (64-Bit) -->
<svg xmlns="http://www.w3.org/2000/svg" xml:space="preserve" width="135.467mm" height="135.467mm" version="1.1" style="shape-rendering:geometricPrecision; text-rendering:geometricPrecision; image-rendering:optimizeQuality; fill-rule:evenodd; clip-rule:evenodd"
viewBox="0 0 4392.78 4392.78"
 xmlns:xlink="http://www.w3.org/1999/xlink"
 xmlns:xodm="http://www.corel.com/coreldraw/odm/2003">
 <defs>
  <style type="text/css">
   <![CDATA[
    .fil0 {fill:#2A7CB6;fill-rule:nonzero}
   ]]>
  </style>
 </defs>
 <g id="Layer_x0020_1">
  <metadata id="CorelCorpID_0Corel-Layer"/>
  <g id="_2952826981744">
   <g>
    <g>
     <path class="fil0" d="M4049.59 0l-3706.41 0c-189.44,0.22 -342.96,153.75 -343.18,343.18l0 3706.41c0.22,189.44 153.75,342.96 343.18,343.18l3706.41 0c189.44,-0.22 342.96,-153.75 343.18,-343.18l0 -3706.41c-0.22,-189.44 -153.75,-342.96 -343.18,-343.18zm205.91 4049.59c0,113.72 -92.19,205.91 -205.91,205.91l-3706.41 0c-113.72,0 -205.91,-92.19 -205.91,-205.91l0 -3706.41c0,-113.72 92.19,-205.91 205.91,-205.91l3706.41 0c113.72,0 205.91,92.19 205.91,205.91l0 3706.41z"/>
    </g>
   </g>
   <g>
    <g>
     <path class="fil0" d="M480.46 343.18c-1.9,-0.04 -3.79,-0.04 -5.69,0 -74.24,1.57 -133.16,63.03 -131.59,137.27l0 274.55 137.27 0 0 -274.55 343.19 0 0 -137.27 -343.19 0z"/>
    </g>
   </g>
   <g>
    <g>
     <path class="fil0" d="M3637.77 686.37l-2882.76 0c-37.9,0 -68.64,30.73 -68.64,68.64l0 823.65c0,37.9 30.73,68.64 68.64,68.64l2882.76 0c37.9,0 68.64,-30.73 68.64,-68.64l0 -823.65c0,-37.9 -30.73,-68.64 -68.64,-68.64zm-68.64 823.65l-2745.49 0 0 -686.37 2745.49 0 0 686.37z"/>
    </g>
   </g>
   <g>
    <g>
     <path class="fil0" d="M1853.2 1853.2l-1098.2 0c-37.9,0 -68.64,30.73 -68.64,68.64l0 1098.2c0,37.9 30.73,68.64 68.64,68.64l1098.2 -0c37.9,0 68.64,-30.73 68.64,-68.64l-0 -1098.2c0,-37.9 -30.73,-68.64 -68.64,-68.64zm-1029.56 1098.19l0 -863.87 863.87 863.87 -863.87 0zm960.92 -97.08l-863.84 -863.84 863.84 0 0 863.84z"/>
    </g>
   </g>
   <g>
    <g>
     <path class="fil0" d="M3637.77 1853.2l-1510.02 0c-37.9,0 -68.64,30.73 -68.64,68.64l0 411.82c0,37.9 30.73,68.64 68.64,68.64l1510.02 -0c37.9,0 68.64,-30.73 68.64,-68.64l0 -411.82c0,-37.9 -30.73,-68.64 -68.64,-68.64zm-68.64 411.82l-1372.74 0 0 -274.55 1372.74 0 0 274.55z"/>
    </g>
   </g>
   <g>
    <g>
     <rect class="fil0" x="2059.12" y="2608.21" width="1647.29" height="137.27"/>
    </g>
   </g>
   <g>
    <g>
     <rect class="fil0" x="2059.12" y="2951.4" width="1647.29" height="137.27"/>
    </g>
   </g>
   <g>
    <g>
     <rect class="fil0" x="1235.47" y="3294.58" width="2470.94" height="137.27"/>
    </g>
   </g>
   <g>
    <g>
     <rect class="fil0" x="686.37" y="3637.77" width="2470.94" height="137.27"/>
    </g>
   </g>
   <g>
    <g>
     <rect class="fil0" x="686.37" y="3294.58" width="137.27" height="137.27"/>
    </g>
   </g>
   <g>
    <g>
     <rect class="fil0" x="960.92" y="3294.58" width="137.27" height="137.27"/>
    </g>
   </g>
   <g>
   </g>
   <g>
   </g>
   <g>
   </g>
   <g>
   </g>
   <g>
   </g>
   <g>
   </g>
   <g>
   </g>
   <g>
   </g>
   <g>
   </g>
   <g>
   </g>
   <g>
   </g>
   <g>
   </g>
   <g>
   </g>
   <g>
   </g>
   <g>
   </g>
  </g>
 </g>
</svg>
