<?xml version="1.0" encoding="UTF-8"?>
<!DOCTYPE svg PUBLIC "-//W3C//DTD SVG 1.1//EN" "http://www.w3.org/Graphics/SVG/1.1/DTD/svg11.dtd">
<!-- Creator: CorelDRAW 2019 (64-Bit) -->
<svg xmlns="http://www.w3.org/2000/svg" xml:space="preserve" width="101.093mm" height="135.466mm" version="1.1" style="shape-rendering:geometricPrecision; text-rendering:geometricPrecision; image-rendering:optimizeQuality; fill-rule:evenodd; clip-rule:evenodd"
viewBox="0 0 1262.97 1692.4"
 xmlns:xlink="http://www.w3.org/1999/xlink"
 xmlns:xodm="http://www.corel.com/coreldraw/odm/2003">
 <defs>
  <style type="text/css">
   <![CDATA[
    .fil0 {fill:#2A7CB6;fill-rule:nonzero}
   ]]>
  </style>
 </defs>
 <g id="Layer_x0020_1">
  <metadata id="CorelCorpID_0Corel-Layer"/>
  <g id="_2952837452432">
   <g>
    <path class="fil0" d="M1256.53 964.99l-67.51 -67.51c-4.12,-4.12 -9.7,-6.43 -15.53,-6.43 -5.83,0 -11.41,2.32 -15.53,6.43l-8.85 8.85 -62.34 -62.34 0 -121.91c0,-9.6 -6.23,-18.09 -15.39,-20.96l-385.36 -120.81c-7.81,-2.44 -16.32,-0.36 -22.1,5.43 -5.78,5.78 -7.88,14.3 -5.43,22.11l120.81 385.36c2.87,9.16 11.36,15.39 20.96,15.39l121.91 -0 62.34 62.34 -8.85 8.85c-4.12,4.12 -6.43,9.71 -6.43,15.53 0,5.83 2.31,11.42 6.43,15.53l67.51 67.51c4.29,4.29 9.91,6.43 15.53,6.43 5.62,0 11.24,-2.15 15.53,-6.43l182.31 -182.31c8.58,-8.58 8.58,-22.49 -0,-31.07zm-325.27 -0.33l-114.88 0 -89.22 -284.61 127.19 127.19c-5.29,10.18 -8.12,21.55 -8.12,33.35 0,19.38 7.55,37.59 21.25,51.29 14.14,14.14 32.72,21.22 51.3,21.22 18.57,0 37.15,-7.07 51.29,-21.22 28.28,-28.28 28.28,-74.3 0,-102.59 -22.87,-22.87 -57.33,-27.23 -84.64,-13.11l-127.21 -127.21 284.61 89.23 0 114.88c0,5.82 2.31,11.42 6.43,15.53l68.77 68.77 -102.47 102.47 -68.77 -68.77c-4.12,-4.12 -9.7,-6.43 -15.53,-6.43zm-12.5 -152.66c7.33,0 14.65,2.79 20.23,8.37 11.15,11.16 11.15,29.3 0,40.46 -11.16,11.15 -29.3,11.16 -40.47,0 -11.15,-11.16 -11.15,-29.3 0,-40.46 5.58,-5.58 12.91,-8.37 20.23,-8.37zm139.93 319.76l-36.45 -36.44 151.24 -151.25 36.45 36.45 -151.24 151.24z"/>
    <path class="fil0" d="M856.93 1508.94c-41.45,0 -76.55,27.64 -87.88,65.45 -164.19,-17.46 -318.59,-90.55 -436.67,-207.2 -118.02,-116.58 -193,-269.95 -212.54,-433.72 36.87,-11.9 63.63,-46.53 63.63,-87.31 0,-40.78 -26.76,-75.41 -63.63,-87.31 19.53,-163.77 94.52,-317.14 212.54,-433.72 118.08,-116.64 272.47,-189.73 436.65,-207.2 11.3,37.85 46.42,65.54 87.9,65.54 50.58,0 91.74,-41.15 91.74,-91.74 0,-50.58 -41.15,-91.73 -91.73,-91.73 -43.01,0 -79.19,29.77 -89.06,69.78l-437.34 0 0 -17.87c0,-12.13 -9.83,-21.97 -21.97,-21.97l-79.64 0c-12.13,0 -21.97,9.83 -21.97,21.97l0 79.64c0,12.13 9.83,21.97 21.97,21.97l79.64 -0c12.13,0 21.97,-9.83 21.97,-21.97l0 -17.85 259.23 0c-107.37,37.77 -206.11,99.02 -288.26,180.17 -86.52,85.47 -151.21,189.62 -189.74,303.16l0 -166.67 17.84 -0c12.13,0 21.97,-9.83 21.97,-21.97l0 -79.64c0,-12.13 -9.83,-21.97 -21.97,-21.97l-79.64 0c-12.13,0 -21.97,9.83 -21.97,21.97l0 79.64c0,12.13 9.83,21.97 21.97,21.97l17.87 -0 0 327.24c-39.02,10.55 -67.82,46.24 -67.82,88.55 0,42.31 28.8,78 67.82,88.55l0 327.25 -17.87 -0c-12.13,0 -21.97,9.83 -21.97,21.97l0 79.64c0,12.13 9.83,21.97 21.97,21.97l79.64 -0c12.13,0 21.97,-9.83 21.97,-21.97l0 -79.64c0,-12.13 -9.83,-21.97 -21.97,-21.97l-17.84 0 0 -166.68c38.54,113.55 103.22,217.69 189.74,303.16 82.23,81.23 181.09,142.52 288.58,180.28l-259.55 0 0 -17.87c0,-12.13 -9.83,-21.97 -21.97,-21.97l-79.64 0c-12.13,0 -21.97,9.83 -21.97,21.97l0 79.64c0,12.13 9.83,21.97 21.97,21.97l79.64 -0c12.13,0 21.97,-9.83 21.97,-21.97l0 -17.85 437.34 0c9.87,40 46.05,69.76 89.06,69.76 50.58,0 91.74,-41.15 91.74,-91.74 0,-50.58 -41.15,-91.72 -91.74,-91.72zm0 -1465.01c26.36,0 47.8,21.44 47.8,47.8 0,26.36 -21.44,47.8 -47.8,47.8 -26.36,0 -47.8,-21.44 -47.8,-47.8 0,-26.36 21.44,-47.8 47.8,-47.8zm-813 802.23c0,-26.36 21.44,-47.8 47.8,-47.8 26.36,0 47.8,21.44 47.8,47.8 0,26.36 -21.44,47.8 -47.8,47.8 -26.36,0 -47.8,-21.45 -47.8,-47.8zm813 802.32c-26.36,0 -47.8,-21.44 -47.8,-47.8 0,-26.36 21.44,-47.8 47.8,-47.8 26.36,0 47.8,21.44 47.8,47.8 0,26.36 -21.45,47.8 -47.8,47.8z"/>
   </g>
   <g>
   </g>
   <g>
   </g>
   <g>
   </g>
   <g>
   </g>
   <g>
   </g>
   <g>
   </g>
   <g>
   </g>
   <g>
   </g>
   <g>
   </g>
   <g>
   </g>
   <g>
   </g>
   <g>
   </g>
   <g>
   </g>
   <g>
   </g>
   <g>
   </g>
  </g>
 </g>
</svg>
