<?xml version="1.0" encoding="UTF-8"?>
<!DOCTYPE svg PUBLIC "-//W3C//DTD SVG 1.1//EN" "http://www.w3.org/Graphics/SVG/1.1/DTD/svg11.dtd">
<!-- Creator: CorelDRAW 2019 (64-Bit) -->
<svg xmlns="http://www.w3.org/2000/svg" xml:space="preserve" width="135.467mm" height="135.467mm" version="1.1" style="shape-rendering:geometricPrecision; text-rendering:geometricPrecision; image-rendering:optimizeQuality; fill-rule:evenodd; clip-rule:evenodd"
viewBox="0 0 13546.66 13546.67"
 xmlns:xlink="http://www.w3.org/1999/xlink"
 xmlns:xodm="http://www.corel.com/coreldraw/odm/2003">
 <defs>
  <style type="text/css">
   <![CDATA[
    .fil0 {fill:#2A7CB6;fill-rule:nonzero}
   ]]>
  </style>
 </defs>
 <g id="Layer_x0020_1">
  <metadata id="CorelCorpID_0Corel-Layer"/>
  <g id="_2952896596768">
   <g>
    <path class="fil0" d="M12417.77 0l-11288.88 0c-622.47,0 -1128.89,506.42 -1128.89,1128.89l0 6999.11 0 903.11c0,622.47 506.42,1128.89 1128.89,1128.89l3793.51 0 -369.37 2032 -887.08 0c-258.29,0 -490.39,143.37 -605.99,374.34 -105.66,211.55 -94.6,457.88 29.58,659.05 124.18,201.17 339.8,321.28 576.18,321.28l6214.99 -0.01c236.39,0 451.78,-120.11 576.18,-321.28 124.4,-201.17 135.47,-447.49 29.58,-659.05 -115.15,-230.96 -347.24,-374.33 -605.53,-374.33l-887.09 0 -369.37 -2032 3793.29 0c622.47,0 1128.89,-506.42 1128.89,-1128.89l0 -903.11 0 -6999.11c0,-622.47 -506.42,-1128.89 -1128.89,-1128.89zm-3612.44 12643.55l1075.61 0c86.02,0 163.46,47.86 202.07,124.86 50.8,101.6 9.93,187.4 -9.71,219.68 -20.32,32.06 -78.8,107.02 -192.36,107.02l-6215.22 0c-113.57,0 -172.27,-74.96 -192.14,-107.24 -19.87,-32.29 -60.73,-117.86 -9.71,-219.68 38.38,-76.76 115.82,-124.63 201.85,-124.63l1075.61 -0.01 1806.22 0c124.63,0 225.78,-101.15 225.78,-225.78 0,-124.63 -101.15,-225.78 -225.78,-225.78l-1535.74 0.01 369.37 -2032 2784.07 0 369.6 2032 -632.63 0c-124.63,0 -225.78,101.15 -225.78,225.78 0,124.63 101.15,225.78 225.78,225.78l903.11 -0.01zm4289.78 -3612.44c0,373.44 -303.9,677.33 -677.33,677.33l-4064.01 0 -3160.88 0 -4064 0c-373.44,0 -677.33,-303.9 -677.33,-677.33l0 -677.33 12643.55 -0.01 0 677.34zm0 -1128.89l-12643.56 0 0 -6773.33c0,-373.44 303.9,-677.33 677.33,-677.33l11288.89 -0.01c373.44,0 677.33,303.9 677.33,677.33l0.01 6773.34z"/>
   </g>
  </g>
  <g id="_2952896597216">
   <g>
    <path class="fil0" d="M6096 4515.55l-2257.78 0 0 -2257.78c0,-124.63 -101.15,-225.78 -225.78,-225.78 -1493.97,0 -2709.33,1215.36 -2709.33,2709.33 0,1493.97 1215.36,2709.33 2709.33,2709.33 1493.97,0 2709.33,-1215.36 2709.33,-2709.33 0,-124.62 -101.14,-225.77 -225.77,-225.77zm-2483.56 2483.56c-1244.94,0 -2257.78,-1012.84 -2257.78,-2257.78 0,-1168.63 892.73,-2132.92 2032,-2246.49l0 2246.49c0,124.63 101.15,225.78 225.78,225.78l2246.49 0c-113.57,1139.27 -1077.86,2032 -2246.49,2032z"/>
   </g>
  </g>
  <g id="_2952896600160">
   <g>
    <path class="fil0" d="M4515.55 1128.89c-124.63,0 -225.78,101.15 -225.78,225.78l0 2483.56c0,124.63 101.15,225.78 225.78,225.78l2483.56 -0.01c124.63,0 225.78,-101.15 225.78,-225.78 0,-1493.97 -1215.37,-2709.33 -2709.34,-2709.33zm225.78 2483.55l0 -2020.71c1064.99,106.12 1914.6,955.72 2020.71,2020.71l-2020.71 0z"/>
   </g>
  </g>
  <g id="_2952896598688">
   <g>
    <path class="fil0" d="M12417.77 903.11l-4515.55 0c-124.63,0 -225.78,101.15 -225.78,225.78l0 6096c0,124.63 101.15,225.78 225.78,225.78l4515.55 -0.01c124.63,0 225.78,-101.15 225.78,-225.78l0 -6095.99c0,-124.63 -101.15,-225.78 -225.78,-225.78zm-225.77 6096l-4064 0 0 -5644.45 4064 0 0 5644.45z"/>
   </g>
  </g>
  <g id="_2952896600032">
   <g>
    <path class="fil0" d="M10160 2032l-1354.67 0c-124.63,0 -225.78,101.15 -225.78,225.78 0,124.63 101.15,225.78 225.78,225.78l1354.67 -0.01c124.63,0 225.78,-101.15 225.78,-225.78 0,-124.63 -101.15,-225.77 -225.78,-225.77z"/>
   </g>
  </g>
  <g id="_2952896602112">
   <g>
    <path class="fil0" d="M11514.66 2935.11l-2709.33 0c-124.63,0 -225.78,101.15 -225.78,225.78 0,124.63 101.15,225.78 225.78,225.78l2709.33 -0.01c124.63,0 225.78,-101.15 225.78,-225.78 0,-124.63 -101.15,-225.77 -225.78,-225.77z"/>
   </g>
  </g>
  <g id="_2952896601632">
   <g>
    <path class="fil0" d="M10160 3838.22l-1354.67 0c-124.63,0 -225.78,101.15 -225.78,225.78 0,124.63 101.15,225.78 225.78,225.78l1354.67 -0.01c124.63,0 225.78,-101.15 225.78,-225.78 0,-124.63 -101.15,-225.77 -225.78,-225.77z"/>
   </g>
  </g>
  <g id="_2952896600736">
   <g>
    <path class="fil0" d="M11514.66 4741.33l-2709.33 0c-124.63,0 -225.78,101.15 -225.78,225.78 0,124.63 101.15,225.78 225.78,225.78l2709.33 0c124.63,0 225.78,-101.15 225.78,-225.78 0,-124.63 -101.15,-225.78 -225.78,-225.78z"/>
   </g>
  </g>
  <g id="_2952896603744">
   <g>
    <path class="fil0" d="M10160 5644.44l-1354.67 0c-124.63,0 -225.78,101.15 -225.78,225.78 0,124.63 101.15,225.78 225.78,225.78l1354.67 0c124.63,0 225.78,-101.15 225.78,-225.78 0,-124.63 -101.15,-225.78 -225.78,-225.78z"/>
   </g>
  </g>
  <g id="_2952896603296">
   <g>
    <path class="fil0" d="M7224.89 8805.33l-903.12 0c-124.63,0 -225.78,101.15 -225.78,225.78 0,124.63 101.15,225.78 225.78,225.78l903.12 0c124.63,0 225.78,-101.15 225.78,-225.78 -0.01,-124.63 -101.16,-225.78 -225.78,-225.78z"/>
   </g>
  </g>
  <g id="_2952896602848">
  </g>
  <g id="_2952896604800">
  </g>
  <g id="_2952896605536">
  </g>
  <g id="_2952896606592">
  </g>
  <g id="_2952896606112">
  </g>
  <g id="_2952896605632">
  </g>
  <g id="_2952896607072">
  </g>
  <g id="_2952896607008">
  </g>
  <g id="_2952896608288">
  </g>
  <g id="_2952896608672">
  </g>
  <g id="_2952896610464">
  </g>
  <g id="_2952896610112">
  </g>
  <g id="_2952896610560">
  </g>
  <g id="_2952896608960">
  </g>
  <g id="_2952896611072">
  </g>
 </g>
</svg>
